<svg xmlns="http://www.w3.org/2000/svg" version="1.1" xmlns:xlink="http://www.w3.org/1999/xlink" xmlns:svgjs="http://svgjs.dev/svgjs" width="1440" height="560" preserveAspectRatio="none" viewBox="0 0 1440 560"><g mask="url(&quot;#SvgjsMask16067&quot;)" fill="none"><rect width="1440" height="560" x="0" y="0" fill="url(&quot;#SvgjsRadialGradient16068&quot;)"></rect><use xlink:href="#SvgjsG16071" transform="translate(0, 0)" fill="rgba(255, 152, 0, 1)"></use><use xlink:href="#SvgjsG16071" transform="translate(720, 0)" fill="rgba(68, 138, 255, 1)"></use></g><defs><mask id="SvgjsMask16067"><rect width="1440" height="560" fill="#ffffff"></rect></mask><radialGradient cx="50%" cy="50%" r="772.53" gradientUnits="userSpaceOnUse" id="SvgjsRadialGradient16068"><stop stop-color="rgba(173, 20, 87, 1)" offset="0.16"></stop><stop stop-color="rgba(0, 0, 0, 1)" offset="1"></stop></radialGradient><g id="SvgjsG16070"><path d="M0 8.07C0 12.45 3.58 16 8 16 12.42 16 16 12.45 16 8.07c0-4.38-3.58-7.92-8-7.92C3.58 0.15 0 3.7 0 8.07z m14.16 0c0 3.37-2.76 6.1-6.16 6.09C4.6 14.17 1.84 11.44 1.84 8.07c0-3.37 2.76-6.1 6.16-6.1C11.4 1.98 14.16 4.71 14.16 8.07z"></path><path d="M10.82 8.9l0-1.8L9.43 7.1c-0.38 0-0.73-0.17-1.04-0.64-0.31-0.47-0.93-1.78-2.58-1.78-1.64 0-2.77 1.38-3.01 2.54-0.24 1.16-0.08 2.41 0.9 3.29 0.87 0.8 1.56 0.97 3.08 0.97l0-1.79-0.35 0c-0.81 0-1.67-0.09-1.9-1.24-0.12-0.64 0.07-1.23 0.41-1.59 0.4-0.4 1.28-0.4 1.72 0.24l0.69 1.01c0.38 0.58 0.8 0.79 1.41 0.79l2.07 0z m2.54 0L11.53 8.9l0-1.8 1.83 0z"></path></g><g id="SvgjsG16069"><path d="M15.48 8.29C15.49 12.54 12.03 16 7.77 16 3.51 16 0.05 12.54 0.05 8.29S3.51 0.57 7.77 0.57c4.26 0 7.72 3.46 7.72 7.72z m-1.91 0c0-3.2-2.6-5.81-5.8-5.81-3.2 0-5.81 2.61-5.81 5.81 0 3.2 2.61 5.8 5.81 5.8 3.21 0 5.81-2.6 5.8-5.8z"></path><path d="M8.79 8.25a0.57 0.57 0 0 1-0.04 0.55 0.58 0.58 0 0 1-0.4 0.26L3.86 9.07a0.58 0.58 0 0 1 0-1.16l3.48 0-1.4-2.98a0.58 0.58 0 0 1 0.28-0.77c0.29-0.14 0.64-0.01 0.77 0.27l1.8 3.81z"></path></g><g id="SvgjsG16071"><use xlink:href="#SvgjsG16069" transform="translate(0, 0) scale(1.5)" fill="rgba(255, 152, 0, 1)"></use><use xlink:href="#SvgjsG16070" transform="translate(0, 72) scale(1.5)" fill="rgba(21, 101, 192, 1)"></use><use xlink:href="#SvgjsG16070" transform="translate(0, 144) scale(1.5)" fill="rgba(21, 101, 192, 1)"></use><use xlink:href="#SvgjsG16069" transform="translate(0, 216) scale(1.5)" fill="rgba(0, 150, 136, 1)"></use><use xlink:href="#SvgjsG16069" transform="translate(0, 288) scale(1.5)" fill="rgba(255, 152, 0, 1)"></use><use xlink:href="#SvgjsG16069" transform="translate(0, 360) scale(1.5)" fill="rgba(244, 67, 54, 1)"></use><use xlink:href="#SvgjsG16070" transform="translate(0, 432) scale(1.5)" fill="rgba(21, 101, 192, 1)"></use><use xlink:href="#SvgjsG16070" transform="translate(0, 504) scale(1.5)" fill="rgba(255, 152, 0, 1)"></use><use xlink:href="#SvgjsG16070" transform="translate(72, 0) scale(1.5)" fill="rgba(0, 150, 136, 1)"></use><use xlink:href="#SvgjsG16070" transform="translate(72, 72) scale(1.5)" fill="rgba(244, 67, 54, 1)"></use><use xlink:href="#SvgjsG16070" transform="translate(72, 144) scale(1.5)" fill="rgba(255, 193, 7, 1)"></use><use xlink:href="#SvgjsG16070" transform="translate(72, 216) scale(1.5)" fill="rgba(0, 150, 136, 1)"></use><use xlink:href="#SvgjsG16069" transform="translate(72, 288) scale(1.5)" fill="rgba(244, 67, 54, 1)"></use><use xlink:href="#SvgjsG16070" transform="translate(72, 360) scale(1.5)" fill="rgba(244, 67, 54, 1)"></use><use xlink:href="#SvgjsG16069" transform="translate(72, 432) scale(1.5)" fill="rgba(68, 138, 255, 1)"></use><use xlink:href="#SvgjsG16070" transform="translate(72, 504) scale(1.5)" fill="rgba(244, 67, 54, 1)"></use><use xlink:href="#SvgjsG16069" transform="translate(144, 0) scale(1.5)" fill="rgba(21, 101, 192, 1)"></use><use xlink:href="#SvgjsG16069" transform="translate(144, 72) scale(1.5)" fill="rgba(244, 67, 54, 1)"></use><use xlink:href="#SvgjsG16070" transform="translate(144, 144) scale(1.5)" fill="rgba(0, 150, 136, 1)"></use><use xlink:href="#SvgjsG16069" transform="translate(144, 216) scale(1.5)" fill="rgba(244, 67, 54, 1)"></use><use xlink:href="#SvgjsG16070" transform="translate(144, 288) scale(1.5)" fill="rgba(21, 101, 192, 1)"></use><use xlink:href="#SvgjsG16070" transform="translate(144, 360) scale(1.5)" fill="rgba(21, 101, 192, 1)"></use><use xlink:href="#SvgjsG16070" transform="translate(144, 432) scale(1.5)" fill="rgba(68, 138, 255, 1)"></use><use xlink:href="#SvgjsG16069" transform="translate(144, 504) scale(1.5)" fill="rgba(21, 101, 192, 1)"></use><use xlink:href="#SvgjsG16070" transform="translate(216, 0) scale(1.5)" fill="rgba(244, 67, 54, 1)"></use><use xlink:href="#SvgjsG16070" transform="translate(216, 72) scale(1.5)" fill="rgba(139, 195, 74, 1)"></use><use xlink:href="#SvgjsG16069" transform="translate(216, 144) scale(1.5)" fill="rgba(255, 193, 7, 1)"></use><use xlink:href="#SvgjsG16070" transform="translate(216, 216) scale(1.5)" fill="rgba(255, 193, 7, 1)"></use><use xlink:href="#SvgjsG16069" transform="translate(216, 288) scale(1.5)" fill="rgba(244, 67, 54, 1)"></use><use xlink:href="#SvgjsG16070" transform="translate(216, 360) scale(1.5)" fill="rgba(21, 101, 192, 1)"></use><use xlink:href="#SvgjsG16070" transform="translate(216, 432) scale(1.5)" fill="rgba(255, 193, 7, 1)"></use><use xlink:href="#SvgjsG16069" transform="translate(216, 504) scale(1.5)" fill="rgba(21, 101, 192, 1)"></use><use xlink:href="#SvgjsG16070" transform="translate(288, 0) scale(1.5)" fill="rgba(244, 67, 54, 1)"></use><use xlink:href="#SvgjsG16069" transform="translate(288, 72) scale(1.5)" fill="rgba(139, 195, 74, 1)"></use><use xlink:href="#SvgjsG16070" transform="translate(288, 144) scale(1.5)" fill="rgba(255, 193, 7, 1)"></use><use xlink:href="#SvgjsG16070" transform="translate(288, 216) scale(1.5)" fill="rgba(255, 193, 7, 1)"></use><use xlink:href="#SvgjsG16070" transform="translate(288, 288) scale(1.5)" fill="rgba(0, 150, 136, 1)"></use><use xlink:href="#SvgjsG16070" transform="translate(288, 360) scale(1.5)" fill="rgba(21, 101, 192, 1)"></use><use xlink:href="#SvgjsG16069" transform="translate(288, 432) scale(1.5)" fill="rgba(139, 195, 74, 1)"></use><use xlink:href="#SvgjsG16069" transform="translate(288, 504) scale(1.5)" fill="rgba(255, 193, 7, 1)"></use><use xlink:href="#SvgjsG16070" transform="translate(360, 0) scale(1.5)" fill="rgba(255, 193, 7, 1)"></use><use xlink:href="#SvgjsG16070" transform="translate(360, 72) scale(1.5)" fill="rgba(255, 193, 7, 1)"></use><use xlink:href="#SvgjsG16069" transform="translate(360, 144) scale(1.5)" fill="rgba(139, 195, 74, 1)"></use><use xlink:href="#SvgjsG16070" transform="translate(360, 216) scale(1.5)" fill="rgba(68, 138, 255, 1)"></use><use xlink:href="#SvgjsG16069" transform="translate(360, 288) scale(1.5)" fill="rgba(139, 195, 74, 1)"></use><use xlink:href="#SvgjsG16069" transform="translate(360, 360) scale(1.5)" fill="rgba(68, 138, 255, 1)"></use><use xlink:href="#SvgjsG16069" transform="translate(360, 432) scale(1.5)" fill="rgba(68, 138, 255, 1)"></use><use xlink:href="#SvgjsG16070" transform="translate(360, 504) scale(1.5)" fill="rgba(255, 152, 0, 1)"></use><use xlink:href="#SvgjsG16070" transform="translate(432, 0) scale(1.5)" fill="rgba(0, 150, 136, 1)"></use><use xlink:href="#SvgjsG16070" transform="translate(432, 72) scale(1.5)" fill="rgba(21, 101, 192, 1)"></use><use xlink:href="#SvgjsG16069" transform="translate(432, 144) scale(1.5)" fill="rgba(255, 152, 0, 1)"></use><use xlink:href="#SvgjsG16070" transform="translate(432, 216) scale(1.5)" fill="rgba(244, 67, 54, 1)"></use><use xlink:href="#SvgjsG16070" transform="translate(432, 288) scale(1.5)" fill="rgba(255, 193, 7, 1)"></use><use xlink:href="#SvgjsG16070" transform="translate(432, 360) scale(1.5)" fill="rgba(139, 195, 74, 1)"></use><use xlink:href="#SvgjsG16070" transform="translate(432, 432) scale(1.5)" fill="rgba(21, 101, 192, 1)"></use><use xlink:href="#SvgjsG16070" transform="translate(432, 504) scale(1.5)" fill="rgba(255, 152, 0, 1)"></use><use xlink:href="#SvgjsG16069" transform="translate(504, 0) scale(1.5)" fill="rgba(0, 150, 136, 1)"></use><use xlink:href="#SvgjsG16070" transform="translate(504, 72) scale(1.5)" fill="rgba(21, 101, 192, 1)"></use><use xlink:href="#SvgjsG16069" transform="translate(504, 144) scale(1.5)" fill="rgba(68, 138, 255, 1)"></use><use xlink:href="#SvgjsG16070" transform="translate(504, 216) scale(1.5)" fill="rgba(139, 195, 74, 1)"></use><use xlink:href="#SvgjsG16069" transform="translate(504, 288) scale(1.5)" fill="rgba(68, 138, 255, 1)"></use><use xlink:href="#SvgjsG16069" transform="translate(504, 360) scale(1.5)" fill="rgba(255, 152, 0, 1)"></use><use xlink:href="#SvgjsG16069" transform="translate(504, 432) scale(1.5)" fill="rgba(139, 195, 74, 1)"></use><use xlink:href="#SvgjsG16069" transform="translate(504, 504) scale(1.5)" fill="rgba(139, 195, 74, 1)"></use><use xlink:href="#SvgjsG16069" transform="translate(576, 0) scale(1.5)" fill="rgba(0, 150, 136, 1)"></use><use xlink:href="#SvgjsG16070" transform="translate(576, 72) scale(1.5)" fill="rgba(244, 67, 54, 1)"></use><use xlink:href="#SvgjsG16069" transform="translate(576, 144) scale(1.5)" fill="rgba(0, 150, 136, 1)"></use><use xlink:href="#SvgjsG16070" transform="translate(576, 216) scale(1.5)" fill="rgba(21, 101, 192, 1)"></use><use xlink:href="#SvgjsG16069" transform="translate(576, 288) scale(1.5)" fill="rgba(0, 150, 136, 1)"></use><use xlink:href="#SvgjsG16069" transform="translate(576, 360) scale(1.5)" fill="rgba(139, 195, 74, 1)"></use><use xlink:href="#SvgjsG16069" transform="translate(576, 432) scale(1.5)" fill="rgba(255, 193, 7, 1)"></use><use xlink:href="#SvgjsG16070" transform="translate(576, 504) scale(1.5)" fill="rgba(244, 67, 54, 1)"></use><use xlink:href="#SvgjsG16069" transform="translate(648, 0) scale(1.5)" fill="rgba(21, 101, 192, 1)"></use><use xlink:href="#SvgjsG16069" transform="translate(648, 72) scale(1.5)" fill="rgba(0, 150, 136, 1)"></use><use xlink:href="#SvgjsG16070" transform="translate(648, 144) scale(1.5)" fill="rgba(68, 138, 255, 1)"></use><use xlink:href="#SvgjsG16070" transform="translate(648, 216) scale(1.5)" fill="rgba(255, 152, 0, 1)"></use><use xlink:href="#SvgjsG16069" transform="translate(648, 288) scale(1.5)" fill="rgba(255, 193, 7, 1)"></use><use xlink:href="#SvgjsG16070" transform="translate(648, 360) scale(1.5)" fill="rgba(68, 138, 255, 1)"></use><use xlink:href="#SvgjsG16069" transform="translate(648, 432) scale(1.5)" fill="rgba(21, 101, 192, 1)"></use><use xlink:href="#SvgjsG16069" transform="translate(648, 504) scale(1.5)" fill="rgba(0, 150, 136, 1)"></use></g></defs></svg>