<svg xmlns="http://www.w3.org/2000/svg" version="1.1" xmlns:xlink="http://www.w3.org/1999/xlink" xmlns:svgjs="http://svgjs.dev/svgjs" width="1440" height="560" preserveAspectRatio="none" viewBox="0 0 1440 560"><g mask="url(&quot;#SvgjsMask15507&quot;)" fill="none"><rect width="1440" height="560" x="0" y="0" fill="url(&quot;#SvgjsRadialGradient15508&quot;)"></rect><use xlink:href="#SvgjsG15511" transform="translate(0, 0)" fill="rgba(68, 138, 255, 1)"></use><use xlink:href="#SvgjsG15511" transform="translate(720, 0)" fill="rgba(21, 101, 192, 1)"></use></g><defs><mask id="SvgjsMask15507"><rect width="1440" height="560" fill="#ffffff"></rect></mask><radialGradient cx="50%" cy="50%" r="772.53" gradientUnits="userSpaceOnUse" id="SvgjsRadialGradient15508"><stop stop-color="rgba(173, 20, 87, 1)" offset="0.16"></stop><stop stop-color="rgba(0, 0, 0, 1)" offset="1"></stop></radialGradient><g id="SvgjsG15510"><path d="M13.71 13.6C16.8 10.51 16.78 5.47 13.66 2.35 10.53-0.78 5.49-0.8 2.4 2.29c-3.1 3.09-3.07 8.14 0.05 11.27C5.57 16.68 10.62 16.7 13.71 13.6z m-10.01-10.01c2.38-2.38 6.26-2.36 8.66 0.05C14.77 6.04 14.79 9.92 12.41 12.3c-2.38 2.38-6.26 2.36-8.67-0.03C1.34 9.86 1.32 5.98 3.7 3.59z"></path><path d="M6.64 5.37l-1.27 1.27L6.35 7.62c0.27 0.26 0.4 0.64 0.29 1.19-0.11 0.55-0.6 1.92 0.56 3.08 1.16 1.16 2.93 0.98 3.92 0.34 0.98-0.65 1.76-1.65 1.7-2.97-0.05-1.18-0.42-1.79-1.5-2.86l-1.26 1.26 0.25 0.25c0.58 0.57 1.11 1.24 0.46 2.23-0.36 0.54-0.92 0.82-1.41 0.83-0.56 0-1.19-0.62-1.05-1.39l0.23-1.19c0.15-0.68-0.01-1.12-0.44-1.56l-1.46-1.46z m-1.79-1.8L6.15 4.87l-1.28 1.28-1.3-1.3z"></path></g><g id="SvgjsG15509"><path d="M2.91 2.5C5.92-0.5 10.81-0.5 13.82 2.51 16.83 5.52 16.83 10.41 13.82 13.42S5.92 16.43 2.91 13.42c-3.01-3.01-3.01-7.91 0-10.92z m1.35 1.35c-2.26 2.26-2.27 5.95 0 8.22 2.26 2.26 5.95 2.26 8.21 0 2.26-2.26 2.26-5.95 0-8.21-2.27-2.27-5.95-2.27-8.21-0.01z"></path><path d="M7.62 7.27a0.57 0.57 0 0 1 0.42-0.36 0.58 0.58 0 0 1 0.46 0.1L11.68 10.17a0.58 0.58 0 0 1-0.82 0.82l-2.46-2.46-1.11 3.1a0.58 0.58 0 0 1-0.74 0.35c-0.3-0.11-0.46-0.44-0.36-0.74l1.43-3.97z"></path></g><g id="SvgjsG15511"><use xlink:href="#SvgjsG15509" transform="translate(0, 0) scale(1.5)" fill="rgba(139, 195, 74, 1)"></use><use xlink:href="#SvgjsG15510" transform="translate(0, 72) scale(1.5)" fill="rgba(255, 152, 0, 1)"></use><use xlink:href="#SvgjsG15509" transform="translate(0, 144) scale(1.5)" fill="rgba(255, 152, 0, 1)"></use><use xlink:href="#SvgjsG15510" transform="translate(0, 216) scale(1.5)" fill="rgba(255, 193, 7, 1)"></use><use xlink:href="#SvgjsG15509" transform="translate(0, 288) scale(1.5)" fill="rgba(255, 152, 0, 1)"></use><use xlink:href="#SvgjsG15510" transform="translate(0, 360) scale(1.5)" fill="rgba(244, 67, 54, 1)"></use><use xlink:href="#SvgjsG15510" transform="translate(0, 432) scale(1.5)" fill="rgba(255, 193, 7, 1)"></use><use xlink:href="#SvgjsG15510" transform="translate(0, 504) scale(1.5)" fill="rgba(139, 195, 74, 1)"></use><use xlink:href="#SvgjsG15509" transform="translate(72, 0) scale(1.5)" fill="rgba(139, 195, 74, 1)"></use><use xlink:href="#SvgjsG15510" transform="translate(72, 72) scale(1.5)" fill="rgba(255, 193, 7, 1)"></use><use xlink:href="#SvgjsG15509" transform="translate(72, 144) scale(1.5)" fill="rgba(244, 67, 54, 1)"></use><use xlink:href="#SvgjsG15510" transform="translate(72, 216) scale(1.5)" fill="rgba(68, 138, 255, 1)"></use><use xlink:href="#SvgjsG15510" transform="translate(72, 288) scale(1.5)" fill="rgba(255, 152, 0, 1)"></use><use xlink:href="#SvgjsG15509" transform="translate(72, 360) scale(1.5)" fill="rgba(255, 193, 7, 1)"></use><use xlink:href="#SvgjsG15510" transform="translate(72, 432) scale(1.5)" fill="rgba(244, 67, 54, 1)"></use><use xlink:href="#SvgjsG15510" transform="translate(72, 504) scale(1.5)" fill="rgba(68, 138, 255, 1)"></use><use xlink:href="#SvgjsG15510" transform="translate(144, 0) scale(1.5)" fill="rgba(68, 138, 255, 1)"></use><use xlink:href="#SvgjsG15509" transform="translate(144, 72) scale(1.5)" fill="rgba(255, 152, 0, 1)"></use><use xlink:href="#SvgjsG15510" transform="translate(144, 144) scale(1.5)" fill="rgba(0, 150, 136, 1)"></use><use xlink:href="#SvgjsG15509" transform="translate(144, 216) scale(1.5)" fill="rgba(68, 138, 255, 1)"></use><use xlink:href="#SvgjsG15509" transform="translate(144, 288) scale(1.5)" fill="rgba(21, 101, 192, 1)"></use><use xlink:href="#SvgjsG15509" transform="translate(144, 360) scale(1.5)" fill="rgba(139, 195, 74, 1)"></use><use xlink:href="#SvgjsG15510" transform="translate(144, 432) scale(1.5)" fill="rgba(0, 150, 136, 1)"></use><use xlink:href="#SvgjsG15510" transform="translate(144, 504) scale(1.5)" fill="rgba(244, 67, 54, 1)"></use><use xlink:href="#SvgjsG15510" transform="translate(216, 0) scale(1.5)" fill="rgba(68, 138, 255, 1)"></use><use xlink:href="#SvgjsG15510" transform="translate(216, 72) scale(1.5)" fill="rgba(139, 195, 74, 1)"></use><use xlink:href="#SvgjsG15510" transform="translate(216, 144) scale(1.5)" fill="rgba(68, 138, 255, 1)"></use><use xlink:href="#SvgjsG15510" transform="translate(216, 216) scale(1.5)" fill="rgba(21, 101, 192, 1)"></use><use xlink:href="#SvgjsG15509" transform="translate(216, 288) scale(1.5)" fill="rgba(68, 138, 255, 1)"></use><use xlink:href="#SvgjsG15510" transform="translate(216, 360) scale(1.5)" fill="rgba(255, 152, 0, 1)"></use><use xlink:href="#SvgjsG15510" transform="translate(216, 432) scale(1.5)" fill="rgba(0, 150, 136, 1)"></use><use xlink:href="#SvgjsG15509" transform="translate(216, 504) scale(1.5)" fill="rgba(21, 101, 192, 1)"></use><use xlink:href="#SvgjsG15509" transform="translate(288, 0) scale(1.5)" fill="rgba(244, 67, 54, 1)"></use><use xlink:href="#SvgjsG15510" transform="translate(288, 72) scale(1.5)" fill="rgba(21, 101, 192, 1)"></use><use xlink:href="#SvgjsG15509" transform="translate(288, 144) scale(1.5)" fill="rgba(0, 150, 136, 1)"></use><use xlink:href="#SvgjsG15510" transform="translate(288, 216) scale(1.5)" fill="rgba(21, 101, 192, 1)"></use><use xlink:href="#SvgjsG15509" transform="translate(288, 288) scale(1.5)" fill="rgba(139, 195, 74, 1)"></use><use xlink:href="#SvgjsG15509" transform="translate(288, 360) scale(1.5)" fill="rgba(21, 101, 192, 1)"></use><use xlink:href="#SvgjsG15510" transform="translate(288, 432) scale(1.5)" fill="rgba(68, 138, 255, 1)"></use><use xlink:href="#SvgjsG15509" transform="translate(288, 504) scale(1.5)" fill="rgba(21, 101, 192, 1)"></use><use xlink:href="#SvgjsG15510" transform="translate(360, 0) scale(1.5)" fill="rgba(255, 152, 0, 1)"></use><use xlink:href="#SvgjsG15509" transform="translate(360, 72) scale(1.5)" fill="rgba(255, 193, 7, 1)"></use><use xlink:href="#SvgjsG15510" transform="translate(360, 144) scale(1.5)" fill="rgba(244, 67, 54, 1)"></use><use xlink:href="#SvgjsG15509" transform="translate(360, 216) scale(1.5)" fill="rgba(139, 195, 74, 1)"></use><use xlink:href="#SvgjsG15509" transform="translate(360, 288) scale(1.5)" fill="rgba(255, 193, 7, 1)"></use><use xlink:href="#SvgjsG15509" transform="translate(360, 360) scale(1.5)" fill="rgba(21, 101, 192, 1)"></use><use xlink:href="#SvgjsG15510" transform="translate(360, 432) scale(1.5)" fill="rgba(139, 195, 74, 1)"></use><use xlink:href="#SvgjsG15509" transform="translate(360, 504) scale(1.5)" fill="rgba(68, 138, 255, 1)"></use><use xlink:href="#SvgjsG15510" transform="translate(432, 0) scale(1.5)" fill="rgba(255, 152, 0, 1)"></use><use xlink:href="#SvgjsG15509" transform="translate(432, 72) scale(1.5)" fill="rgba(139, 195, 74, 1)"></use><use xlink:href="#SvgjsG15510" transform="translate(432, 144) scale(1.5)" fill="rgba(68, 138, 255, 1)"></use><use xlink:href="#SvgjsG15510" transform="translate(432, 216) scale(1.5)" fill="rgba(255, 152, 0, 1)"></use><use xlink:href="#SvgjsG15509" transform="translate(432, 288) scale(1.5)" fill="rgba(255, 193, 7, 1)"></use><use xlink:href="#SvgjsG15509" transform="translate(432, 360) scale(1.5)" fill="rgba(139, 195, 74, 1)"></use><use xlink:href="#SvgjsG15509" transform="translate(432, 432) scale(1.5)" fill="rgba(244, 67, 54, 1)"></use><use xlink:href="#SvgjsG15510" transform="translate(432, 504) scale(1.5)" fill="rgba(255, 152, 0, 1)"></use><use xlink:href="#SvgjsG15510" transform="translate(504, 0) scale(1.5)" fill="rgba(0, 150, 136, 1)"></use><use xlink:href="#SvgjsG15509" transform="translate(504, 72) scale(1.5)" fill="rgba(255, 152, 0, 1)"></use><use xlink:href="#SvgjsG15510" transform="translate(504, 144) scale(1.5)" fill="rgba(255, 152, 0, 1)"></use><use xlink:href="#SvgjsG15510" transform="translate(504, 216) scale(1.5)" fill="rgba(68, 138, 255, 1)"></use><use xlink:href="#SvgjsG15509" transform="translate(504, 288) scale(1.5)" fill="rgba(244, 67, 54, 1)"></use><use xlink:href="#SvgjsG15509" transform="translate(504, 360) scale(1.5)" fill="rgba(139, 195, 74, 1)"></use><use xlink:href="#SvgjsG15509" transform="translate(504, 432) scale(1.5)" fill="rgba(244, 67, 54, 1)"></use><use xlink:href="#SvgjsG15509" transform="translate(504, 504) scale(1.5)" fill="rgba(68, 138, 255, 1)"></use><use xlink:href="#SvgjsG15509" transform="translate(576, 0) scale(1.5)" fill="rgba(255, 152, 0, 1)"></use><use xlink:href="#SvgjsG15510" transform="translate(576, 72) scale(1.5)" fill="rgba(255, 152, 0, 1)"></use><use xlink:href="#SvgjsG15510" transform="translate(576, 144) scale(1.5)" fill="rgba(255, 193, 7, 1)"></use><use xlink:href="#SvgjsG15510" transform="translate(576, 216) scale(1.5)" fill="rgba(255, 193, 7, 1)"></use><use xlink:href="#SvgjsG15509" transform="translate(576, 288) scale(1.5)" fill="rgba(0, 150, 136, 1)"></use><use xlink:href="#SvgjsG15510" transform="translate(576, 360) scale(1.5)" fill="rgba(244, 67, 54, 1)"></use><use xlink:href="#SvgjsG15509" transform="translate(576, 432) scale(1.5)" fill="rgba(139, 195, 74, 1)"></use><use xlink:href="#SvgjsG15509" transform="translate(576, 504) scale(1.5)" fill="rgba(244, 67, 54, 1)"></use><use xlink:href="#SvgjsG15510" transform="translate(648, 0) scale(1.5)" fill="rgba(0, 150, 136, 1)"></use><use xlink:href="#SvgjsG15509" transform="translate(648, 72) scale(1.5)" fill="rgba(244, 67, 54, 1)"></use><use xlink:href="#SvgjsG15510" transform="translate(648, 144) scale(1.5)" fill="rgba(139, 195, 74, 1)"></use><use xlink:href="#SvgjsG15509" transform="translate(648, 216) scale(1.5)" fill="rgba(21, 101, 192, 1)"></use><use xlink:href="#SvgjsG15510" transform="translate(648, 288) scale(1.5)" fill="rgba(244, 67, 54, 1)"></use><use xlink:href="#SvgjsG15510" transform="translate(648, 360) scale(1.5)" fill="rgba(68, 138, 255, 1)"></use><use xlink:href="#SvgjsG15509" transform="translate(648, 432) scale(1.5)" fill="rgba(255, 193, 7, 1)"></use><use xlink:href="#SvgjsG15510" transform="translate(648, 504) scale(1.5)" fill="rgba(255, 193, 7, 1)"></use></g></defs></svg>