<svg xmlns="http://www.w3.org/2000/svg" version="1.1" xmlns:xlink="http://www.w3.org/1999/xlink" xmlns:svgjs="http://svgjs.dev/svgjs" width="1440" height="560" preserveAspectRatio="none" viewBox="0 0 1440 560"><g mask="url(&quot;#SvgjsMask16282&quot;)" fill="none"><rect width="1440" height="560" x="0" y="0" fill="url(&quot;#SvgjsRadialGradient16283&quot;)"></rect><use xlink:href="#SvgjsG16286" transform="translate(0, 0)" fill="rgba(68, 138, 255, 1)"></use><use xlink:href="#SvgjsG16286" transform="translate(720, 0)" fill="rgba(139, 195, 74, 1)"></use></g><defs><mask id="SvgjsMask16282"><rect width="1440" height="560" fill="#ffffff"></rect></mask><radialGradient cx="50%" cy="50%" r="772.53" gradientUnits="userSpaceOnUse" id="SvgjsRadialGradient16283"><stop stop-color="rgba(173, 20, 87, 1)" offset="0.16"></stop><stop stop-color="rgba(0, 0, 0, 1)" offset="1"></stop></radialGradient><g id="SvgjsG16284"><path d="M2.29 2.4C-0.8 5.49-0.78 10.53 2.34 13.65 5.47 16.78 10.51 16.8 13.6 13.71c3.1-3.09 3.07-8.14-0.05-11.27C10.43-0.68 5.38-0.7 2.29 2.4z m10.01 10.01c-2.38 2.38-6.26 2.36-8.66-0.05C1.23 9.96 1.21 6.08 3.59 3.7c2.38-2.38 6.26-2.36 8.67 0.03C14.66 6.14 14.68 10.02 12.3 12.41z"></path><path d="M9.36 10.63l1.27-1.27L9.65 8.38c-0.27-0.26-0.4-0.64-0.29-1.19 0.11-0.55 0.6-1.92-0.56-3.08-1.16-1.16-2.93-0.98-3.92-0.34-0.98 0.65-1.76 1.65-1.7 2.97 0.05 1.18 0.42 1.79 1.5 2.86l1.26-1.26-0.25-0.25c-0.58-0.57-1.11-1.24-0.46-2.23 0.36-0.54 0.92-0.82 1.41-0.83 0.56 0 1.19 0.62 1.05 1.39l-0.23 1.19c-0.15 0.68 0.01 1.12 0.44 1.56l1.46 1.46z m1.79 1.8L9.85 11.13l1.28-1.28 1.3 1.3z"></path></g><g id="SvgjsG16285"><path d="M13.09 13.5C10.08 16.5 5.19 16.5 2.18 13.49-0.83 10.48-0.83 5.59 2.18 2.58S10.08-0.43 13.09 2.58c3.01 3.01 3.01 7.91 0 10.92z m-1.35-1.35c2.26-2.26 2.27-5.95 0-8.22-2.26-2.26-5.95-2.26-8.21 0-2.26 2.26-2.26 5.95 0 8.21 2.27 2.27 5.95 2.27 8.21 0.01z"></path><path d="M8.38 8.73a0.57 0.57 0 0 1-0.42 0.36 0.58 0.58 0 0 1-0.46-0.1L4.32 5.83a0.58 0.58 0 0 1 0.82-0.82l2.46 2.46 1.11-3.1a0.58 0.58 0 0 1 0.74-0.35c0.3 0.11 0.46 0.44 0.36 0.74l-1.43 3.97z"></path></g><g id="SvgjsG16286"><use xlink:href="#SvgjsG16284" transform="translate(0, 0) scale(1.5)" fill="rgba(244, 67, 54, 1)"></use><use xlink:href="#SvgjsG16285" transform="translate(0, 72) scale(1.5)" fill="rgba(0, 150, 136, 1)"></use><use xlink:href="#SvgjsG16284" transform="translate(0, 144) scale(1.5)" fill="rgba(255, 152, 0, 1)"></use><use xlink:href="#SvgjsG16285" transform="translate(0, 216) scale(1.5)" fill="rgba(0, 150, 136, 1)"></use><use xlink:href="#SvgjsG16284" transform="translate(0, 288) scale(1.5)" fill="rgba(244, 67, 54, 1)"></use><use xlink:href="#SvgjsG16285" transform="translate(0, 360) scale(1.5)" fill="rgba(244, 67, 54, 1)"></use><use xlink:href="#SvgjsG16284" transform="translate(0, 432) scale(1.5)" fill="rgba(21, 101, 192, 1)"></use><use xlink:href="#SvgjsG16285" transform="translate(0, 504) scale(1.5)" fill="rgba(0, 150, 136, 1)"></use><use xlink:href="#SvgjsG16285" transform="translate(72, 0) scale(1.5)" fill="rgba(21, 101, 192, 1)"></use><use xlink:href="#SvgjsG16284" transform="translate(72, 72) scale(1.5)" fill="rgba(255, 152, 0, 1)"></use><use xlink:href="#SvgjsG16285" transform="translate(72, 144) scale(1.5)" fill="rgba(244, 67, 54, 1)"></use><use xlink:href="#SvgjsG16284" transform="translate(72, 216) scale(1.5)" fill="rgba(21, 101, 192, 1)"></use><use xlink:href="#SvgjsG16285" transform="translate(72, 288) scale(1.5)" fill="rgba(21, 101, 192, 1)"></use><use xlink:href="#SvgjsG16284" transform="translate(72, 360) scale(1.5)" fill="rgba(0, 150, 136, 1)"></use><use xlink:href="#SvgjsG16285" transform="translate(72, 432) scale(1.5)" fill="rgba(244, 67, 54, 1)"></use><use xlink:href="#SvgjsG16284" transform="translate(72, 504) scale(1.5)" fill="rgba(0, 150, 136, 1)"></use><use xlink:href="#SvgjsG16284" transform="translate(144, 0) scale(1.5)" fill="rgba(255, 193, 7, 1)"></use><use xlink:href="#SvgjsG16285" transform="translate(144, 72) scale(1.5)" fill="rgba(255, 152, 0, 1)"></use><use xlink:href="#SvgjsG16284" transform="translate(144, 144) scale(1.5)" fill="rgba(68, 138, 255, 1)"></use><use xlink:href="#SvgjsG16285" transform="translate(144, 216) scale(1.5)" fill="rgba(255, 152, 0, 1)"></use><use xlink:href="#SvgjsG16284" transform="translate(144, 288) scale(1.5)" fill="rgba(68, 138, 255, 1)"></use><use xlink:href="#SvgjsG16285" transform="translate(144, 360) scale(1.5)" fill="rgba(0, 150, 136, 1)"></use><use xlink:href="#SvgjsG16284" transform="translate(144, 432) scale(1.5)" fill="rgba(68, 138, 255, 1)"></use><use xlink:href="#SvgjsG16285" transform="translate(144, 504) scale(1.5)" fill="rgba(139, 195, 74, 1)"></use><use xlink:href="#SvgjsG16285" transform="translate(216, 0) scale(1.5)" fill="rgba(68, 138, 255, 1)"></use><use xlink:href="#SvgjsG16284" transform="translate(216, 72) scale(1.5)" fill="rgba(244, 67, 54, 1)"></use><use xlink:href="#SvgjsG16285" transform="translate(216, 144) scale(1.5)" fill="rgba(68, 138, 255, 1)"></use><use xlink:href="#SvgjsG16284" transform="translate(216, 216) scale(1.5)" fill="rgba(255, 152, 0, 1)"></use><use xlink:href="#SvgjsG16285" transform="translate(216, 288) scale(1.5)" fill="rgba(68, 138, 255, 1)"></use><use xlink:href="#SvgjsG16284" transform="translate(216, 360) scale(1.5)" fill="rgba(68, 138, 255, 1)"></use><use xlink:href="#SvgjsG16285" transform="translate(216, 432) scale(1.5)" fill="rgba(0, 150, 136, 1)"></use><use xlink:href="#SvgjsG16284" transform="translate(216, 504) scale(1.5)" fill="rgba(244, 67, 54, 1)"></use><use xlink:href="#SvgjsG16284" transform="translate(288, 0) scale(1.5)" fill="rgba(244, 67, 54, 1)"></use><use xlink:href="#SvgjsG16285" transform="translate(288, 72) scale(1.5)" fill="rgba(0, 150, 136, 1)"></use><use xlink:href="#SvgjsG16284" transform="translate(288, 144) scale(1.5)" fill="rgba(21, 101, 192, 1)"></use><use xlink:href="#SvgjsG16285" transform="translate(288, 216) scale(1.5)" fill="rgba(255, 193, 7, 1)"></use><use xlink:href="#SvgjsG16284" transform="translate(288, 288) scale(1.5)" fill="rgba(68, 138, 255, 1)"></use><use xlink:href="#SvgjsG16285" transform="translate(288, 360) scale(1.5)" fill="rgba(68, 138, 255, 1)"></use><use xlink:href="#SvgjsG16284" transform="translate(288, 432) scale(1.5)" fill="rgba(68, 138, 255, 1)"></use><use xlink:href="#SvgjsG16285" transform="translate(288, 504) scale(1.5)" fill="rgba(68, 138, 255, 1)"></use><use xlink:href="#SvgjsG16285" transform="translate(360, 0) scale(1.5)" fill="rgba(139, 195, 74, 1)"></use><use xlink:href="#SvgjsG16284" transform="translate(360, 72) scale(1.5)" fill="rgba(68, 138, 255, 1)"></use><use xlink:href="#SvgjsG16285" transform="translate(360, 144) scale(1.5)" fill="rgba(68, 138, 255, 1)"></use><use xlink:href="#SvgjsG16284" transform="translate(360, 216) scale(1.5)" fill="rgba(0, 150, 136, 1)"></use><use xlink:href="#SvgjsG16285" transform="translate(360, 288) scale(1.5)" fill="rgba(0, 150, 136, 1)"></use><use xlink:href="#SvgjsG16284" transform="translate(360, 360) scale(1.5)" fill="rgba(139, 195, 74, 1)"></use><use xlink:href="#SvgjsG16285" transform="translate(360, 432) scale(1.5)" fill="rgba(68, 138, 255, 1)"></use><use xlink:href="#SvgjsG16284" transform="translate(360, 504) scale(1.5)" fill="rgba(255, 193, 7, 1)"></use><use xlink:href="#SvgjsG16284" transform="translate(432, 0) scale(1.5)" fill="rgba(0, 150, 136, 1)"></use><use xlink:href="#SvgjsG16285" transform="translate(432, 72) scale(1.5)" fill="rgba(139, 195, 74, 1)"></use><use xlink:href="#SvgjsG16284" transform="translate(432, 144) scale(1.5)" fill="rgba(255, 193, 7, 1)"></use><use xlink:href="#SvgjsG16285" transform="translate(432, 216) scale(1.5)" fill="rgba(68, 138, 255, 1)"></use><use xlink:href="#SvgjsG16284" transform="translate(432, 288) scale(1.5)" fill="rgba(255, 152, 0, 1)"></use><use xlink:href="#SvgjsG16285" transform="translate(432, 360) scale(1.5)" fill="rgba(68, 138, 255, 1)"></use><use xlink:href="#SvgjsG16284" transform="translate(432, 432) scale(1.5)" fill="rgba(0, 150, 136, 1)"></use><use xlink:href="#SvgjsG16285" transform="translate(432, 504) scale(1.5)" fill="rgba(0, 150, 136, 1)"></use><use xlink:href="#SvgjsG16285" transform="translate(504, 0) scale(1.5)" fill="rgba(0, 150, 136, 1)"></use><use xlink:href="#SvgjsG16284" transform="translate(504, 72) scale(1.5)" fill="rgba(68, 138, 255, 1)"></use><use xlink:href="#SvgjsG16285" transform="translate(504, 144) scale(1.5)" fill="rgba(255, 193, 7, 1)"></use><use xlink:href="#SvgjsG16284" transform="translate(504, 216) scale(1.5)" fill="rgba(21, 101, 192, 1)"></use><use xlink:href="#SvgjsG16285" transform="translate(504, 288) scale(1.5)" fill="rgba(255, 152, 0, 1)"></use><use xlink:href="#SvgjsG16284" transform="translate(504, 360) scale(1.5)" fill="rgba(68, 138, 255, 1)"></use><use xlink:href="#SvgjsG16285" transform="translate(504, 432) scale(1.5)" fill="rgba(255, 152, 0, 1)"></use><use xlink:href="#SvgjsG16284" transform="translate(504, 504) scale(1.5)" fill="rgba(255, 152, 0, 1)"></use><use xlink:href="#SvgjsG16284" transform="translate(576, 0) scale(1.5)" fill="rgba(0, 150, 136, 1)"></use><use xlink:href="#SvgjsG16285" transform="translate(576, 72) scale(1.5)" fill="rgba(244, 67, 54, 1)"></use><use xlink:href="#SvgjsG16284" transform="translate(576, 144) scale(1.5)" fill="rgba(244, 67, 54, 1)"></use><use xlink:href="#SvgjsG16285" transform="translate(576, 216) scale(1.5)" fill="rgba(21, 101, 192, 1)"></use><use xlink:href="#SvgjsG16284" transform="translate(576, 288) scale(1.5)" fill="rgba(255, 152, 0, 1)"></use><use xlink:href="#SvgjsG16285" transform="translate(576, 360) scale(1.5)" fill="rgba(68, 138, 255, 1)"></use><use xlink:href="#SvgjsG16284" transform="translate(576, 432) scale(1.5)" fill="rgba(0, 150, 136, 1)"></use><use xlink:href="#SvgjsG16285" transform="translate(576, 504) scale(1.5)" fill="rgba(0, 150, 136, 1)"></use><use xlink:href="#SvgjsG16285" transform="translate(648, 0) scale(1.5)" fill="rgba(0, 150, 136, 1)"></use><use xlink:href="#SvgjsG16284" transform="translate(648, 72) scale(1.5)" fill="rgba(244, 67, 54, 1)"></use><use xlink:href="#SvgjsG16285" transform="translate(648, 144) scale(1.5)" fill="rgba(255, 193, 7, 1)"></use><use xlink:href="#SvgjsG16284" transform="translate(648, 216) scale(1.5)" fill="rgba(21, 101, 192, 1)"></use><use xlink:href="#SvgjsG16285" transform="translate(648, 288) scale(1.5)" fill="rgba(21, 101, 192, 1)"></use><use xlink:href="#SvgjsG16284" transform="translate(648, 360) scale(1.5)" fill="rgba(68, 138, 255, 1)"></use><use xlink:href="#SvgjsG16285" transform="translate(648, 432) scale(1.5)" fill="rgba(21, 101, 192, 1)"></use><use xlink:href="#SvgjsG16284" transform="translate(648, 504) scale(1.5)" fill="rgba(0, 150, 136, 1)"></use></g></defs></svg>