<svg xmlns="http://www.w3.org/2000/svg" version="1.1" xmlns:xlink="http://www.w3.org/1999/xlink" xmlns:svgjs="http://svgjs.dev/svgjs" width="1440" height="560" preserveAspectRatio="none" viewBox="0 0 1440 560"><g mask="url(&quot;#SvgjsMask15682&quot;)" fill="none"><rect width="1440" height="560" x="0" y="0" fill="url(&quot;#SvgjsRadialGradient15683&quot;)"></rect><use xlink:href="#SvgjsG15686" transform="translate(0, 0)" fill="rgba(21, 101, 192, 1)"></use><use xlink:href="#SvgjsG15686" transform="translate(720, 0)" fill="rgba(139, 195, 74, 1)"></use></g><defs><mask id="SvgjsMask15682"><rect width="1440" height="560" fill="#ffffff"></rect></mask><radialGradient cx="50%" cy="50%" r="772.53" gradientUnits="userSpaceOnUse" id="SvgjsRadialGradient15683"><stop stop-color="rgba(173, 20, 87, 1)" offset="0.16"></stop><stop stop-color="rgba(0, 0, 0, 1)" offset="1"></stop></radialGradient><g id="SvgjsG15685"><path d="M8.07 16C12.45 16 16 12.42 16 8 16 3.58 12.45 0 8.07 0c-4.38 0-7.92 3.58-7.92 8C0.15 12.42 3.7 16 8.07 16z m0-14.16c3.37 0 6.09 2.76 6.09 6.16C14.17 11.4 11.44 14.16 8.07 14.16c-3.37 0-6.1-2.76-6.1-6.16C1.98 4.6 4.71 1.84 8.07 1.84z"></path><path d="M8.9 5.18l-1.8 0V6.57c0 0.38-0.17 0.73-0.64 1.04-0.47 0.31-1.78 0.93-1.78 2.58 0 1.64 1.38 2.77 2.54 3.01 1.16 0.24 2.41 0.08 3.29-0.9 0.8-0.87 0.97-1.56 0.97-3.08l-1.79 0 0 0.35c0 0.81-0.09 1.67-1.24 1.9-0.64 0.12-1.23-0.07-1.59-0.41-0.4-0.4-0.4-1.28 0.24-1.72l1.01-0.69c0.58-0.38 0.79-0.8 0.79-1.41l0-2.06z m0-2.54V4.47l-1.8 0 0-1.83z"></path></g><g id="SvgjsG15684"><path d="M8.29 0.52C12.54 0.52 16 3.97 16 8.23 16 12.49 12.54 15.95 8.29 15.95S0.57 12.49 0.57 8.23c0-4.26 3.46-7.72 7.72-7.71z m0 1.91c-3.2 0-5.81 2.6-5.81 5.8 0 3.2 2.61 5.81 5.81 5.81 3.2 0 5.8-2.61 5.8-5.81 0-3.21-2.6-5.81-5.8-5.8z"></path><path d="M8.25 7.21a0.57 0.57 0 0 1 0.55 0.05 0.58 0.58 0 0 1 0.26 0.39L9.07 12.14a0.58 0.58 0 0 1-1.16 0l0-3.48-2.98 1.4a0.58 0.58 0 0 1-0.77-0.27c-0.14-0.29-0.01-0.64 0.27-0.78l3.81-1.8z"></path></g><g id="SvgjsG15686"><use xlink:href="#SvgjsG15684" transform="translate(0, 0) scale(1.5)" fill="rgba(21, 101, 192, 1)"></use><use xlink:href="#SvgjsG15685" transform="translate(0, 72) scale(1.5)" fill="rgba(21, 101, 192, 1)"></use><use xlink:href="#SvgjsG15685" transform="translate(0, 144) scale(1.5)" fill="rgba(255, 152, 0, 1)"></use><use xlink:href="#SvgjsG15684" transform="translate(0, 216) scale(1.5)" fill="rgba(21, 101, 192, 1)"></use><use xlink:href="#SvgjsG15684" transform="translate(0, 288) scale(1.5)" fill="rgba(255, 193, 7, 1)"></use><use xlink:href="#SvgjsG15685" transform="translate(0, 360) scale(1.5)" fill="rgba(68, 138, 255, 1)"></use><use xlink:href="#SvgjsG15685" transform="translate(0, 432) scale(1.5)" fill="rgba(139, 195, 74, 1)"></use><use xlink:href="#SvgjsG15685" transform="translate(0, 504) scale(1.5)" fill="rgba(68, 138, 255, 1)"></use><use xlink:href="#SvgjsG15685" transform="translate(72, 0) scale(1.5)" fill="rgba(68, 138, 255, 1)"></use><use xlink:href="#SvgjsG15685" transform="translate(72, 72) scale(1.5)" fill="rgba(139, 195, 74, 1)"></use><use xlink:href="#SvgjsG15684" transform="translate(72, 144) scale(1.5)" fill="rgba(255, 193, 7, 1)"></use><use xlink:href="#SvgjsG15685" transform="translate(72, 216) scale(1.5)" fill="rgba(244, 67, 54, 1)"></use><use xlink:href="#SvgjsG15684" transform="translate(72, 288) scale(1.5)" fill="rgba(0, 150, 136, 1)"></use><use xlink:href="#SvgjsG15685" transform="translate(72, 360) scale(1.5)" fill="rgba(244, 67, 54, 1)"></use><use xlink:href="#SvgjsG15684" transform="translate(72, 432) scale(1.5)" fill="rgba(68, 138, 255, 1)"></use><use xlink:href="#SvgjsG15684" transform="translate(72, 504) scale(1.5)" fill="rgba(255, 152, 0, 1)"></use><use xlink:href="#SvgjsG15684" transform="translate(144, 0) scale(1.5)" fill="rgba(244, 67, 54, 1)"></use><use xlink:href="#SvgjsG15685" transform="translate(144, 72) scale(1.5)" fill="rgba(244, 67, 54, 1)"></use><use xlink:href="#SvgjsG15684" transform="translate(144, 144) scale(1.5)" fill="rgba(21, 101, 192, 1)"></use><use xlink:href="#SvgjsG15685" transform="translate(144, 216) scale(1.5)" fill="rgba(139, 195, 74, 1)"></use><use xlink:href="#SvgjsG15684" transform="translate(144, 288) scale(1.5)" fill="rgba(68, 138, 255, 1)"></use><use xlink:href="#SvgjsG15684" transform="translate(144, 360) scale(1.5)" fill="rgba(244, 67, 54, 1)"></use><use xlink:href="#SvgjsG15685" transform="translate(144, 432) scale(1.5)" fill="rgba(68, 138, 255, 1)"></use><use xlink:href="#SvgjsG15684" transform="translate(144, 504) scale(1.5)" fill="rgba(244, 67, 54, 1)"></use><use xlink:href="#SvgjsG15685" transform="translate(216, 0) scale(1.5)" fill="rgba(21, 101, 192, 1)"></use><use xlink:href="#SvgjsG15685" transform="translate(216, 72) scale(1.5)" fill="rgba(0, 150, 136, 1)"></use><use xlink:href="#SvgjsG15685" transform="translate(216, 144) scale(1.5)" fill="rgba(255, 193, 7, 1)"></use><use xlink:href="#SvgjsG15684" transform="translate(216, 216) scale(1.5)" fill="rgba(255, 193, 7, 1)"></use><use xlink:href="#SvgjsG15684" transform="translate(216, 288) scale(1.5)" fill="rgba(244, 67, 54, 1)"></use><use xlink:href="#SvgjsG15684" transform="translate(216, 360) scale(1.5)" fill="rgba(255, 152, 0, 1)"></use><use xlink:href="#SvgjsG15685" transform="translate(216, 432) scale(1.5)" fill="rgba(0, 150, 136, 1)"></use><use xlink:href="#SvgjsG15685" transform="translate(216, 504) scale(1.5)" fill="rgba(255, 152, 0, 1)"></use><use xlink:href="#SvgjsG15684" transform="translate(288, 0) scale(1.5)" fill="rgba(21, 101, 192, 1)"></use><use xlink:href="#SvgjsG15684" transform="translate(288, 72) scale(1.5)" fill="rgba(139, 195, 74, 1)"></use><use xlink:href="#SvgjsG15684" transform="translate(288, 144) scale(1.5)" fill="rgba(139, 195, 74, 1)"></use><use xlink:href="#SvgjsG15685" transform="translate(288, 216) scale(1.5)" fill="rgba(68, 138, 255, 1)"></use><use xlink:href="#SvgjsG15685" transform="translate(288, 288) scale(1.5)" fill="rgba(21, 101, 192, 1)"></use><use xlink:href="#SvgjsG15684" transform="translate(288, 360) scale(1.5)" fill="rgba(244, 67, 54, 1)"></use><use xlink:href="#SvgjsG15685" transform="translate(288, 432) scale(1.5)" fill="rgba(244, 67, 54, 1)"></use><use xlink:href="#SvgjsG15684" transform="translate(288, 504) scale(1.5)" fill="rgba(68, 138, 255, 1)"></use><use xlink:href="#SvgjsG15684" transform="translate(360, 0) scale(1.5)" fill="rgba(139, 195, 74, 1)"></use><use xlink:href="#SvgjsG15684" transform="translate(360, 72) scale(1.5)" fill="rgba(68, 138, 255, 1)"></use><use xlink:href="#SvgjsG15684" transform="translate(360, 144) scale(1.5)" fill="rgba(244, 67, 54, 1)"></use><use xlink:href="#SvgjsG15684" transform="translate(360, 216) scale(1.5)" fill="rgba(139, 195, 74, 1)"></use><use xlink:href="#SvgjsG15685" transform="translate(360, 288) scale(1.5)" fill="rgba(0, 150, 136, 1)"></use><use xlink:href="#SvgjsG15684" transform="translate(360, 360) scale(1.5)" fill="rgba(255, 193, 7, 1)"></use><use xlink:href="#SvgjsG15684" transform="translate(360, 432) scale(1.5)" fill="rgba(244, 67, 54, 1)"></use><use xlink:href="#SvgjsG15684" transform="translate(360, 504) scale(1.5)" fill="rgba(255, 193, 7, 1)"></use><use xlink:href="#SvgjsG15684" transform="translate(432, 0) scale(1.5)" fill="rgba(244, 67, 54, 1)"></use><use xlink:href="#SvgjsG15684" transform="translate(432, 72) scale(1.5)" fill="rgba(0, 150, 136, 1)"></use><use xlink:href="#SvgjsG15684" transform="translate(432, 144) scale(1.5)" fill="rgba(68, 138, 255, 1)"></use><use xlink:href="#SvgjsG15684" transform="translate(432, 216) scale(1.5)" fill="rgba(255, 193, 7, 1)"></use><use xlink:href="#SvgjsG15685" transform="translate(432, 288) scale(1.5)" fill="rgba(139, 195, 74, 1)"></use><use xlink:href="#SvgjsG15684" transform="translate(432, 360) scale(1.5)" fill="rgba(21, 101, 192, 1)"></use><use xlink:href="#SvgjsG15685" transform="translate(432, 432) scale(1.5)" fill="rgba(0, 150, 136, 1)"></use><use xlink:href="#SvgjsG15685" transform="translate(432, 504) scale(1.5)" fill="rgba(21, 101, 192, 1)"></use><use xlink:href="#SvgjsG15685" transform="translate(504, 0) scale(1.5)" fill="rgba(0, 150, 136, 1)"></use><use xlink:href="#SvgjsG15684" transform="translate(504, 72) scale(1.5)" fill="rgba(0, 150, 136, 1)"></use><use xlink:href="#SvgjsG15685" transform="translate(504, 144) scale(1.5)" fill="rgba(0, 150, 136, 1)"></use><use xlink:href="#SvgjsG15685" transform="translate(504, 216) scale(1.5)" fill="rgba(0, 150, 136, 1)"></use><use xlink:href="#SvgjsG15684" transform="translate(504, 288) scale(1.5)" fill="rgba(21, 101, 192, 1)"></use><use xlink:href="#SvgjsG15684" transform="translate(504, 360) scale(1.5)" fill="rgba(244, 67, 54, 1)"></use><use xlink:href="#SvgjsG15685" transform="translate(504, 432) scale(1.5)" fill="rgba(68, 138, 255, 1)"></use><use xlink:href="#SvgjsG15685" transform="translate(504, 504) scale(1.5)" fill="rgba(255, 152, 0, 1)"></use><use xlink:href="#SvgjsG15685" transform="translate(576, 0) scale(1.5)" fill="rgba(0, 150, 136, 1)"></use><use xlink:href="#SvgjsG15685" transform="translate(576, 72) scale(1.5)" fill="rgba(0, 150, 136, 1)"></use><use xlink:href="#SvgjsG15684" transform="translate(576, 144) scale(1.5)" fill="rgba(255, 193, 7, 1)"></use><use xlink:href="#SvgjsG15685" transform="translate(576, 216) scale(1.5)" fill="rgba(139, 195, 74, 1)"></use><use xlink:href="#SvgjsG15684" transform="translate(576, 288) scale(1.5)" fill="rgba(68, 138, 255, 1)"></use><use xlink:href="#SvgjsG15684" transform="translate(576, 360) scale(1.5)" fill="rgba(255, 152, 0, 1)"></use><use xlink:href="#SvgjsG15684" transform="translate(576, 432) scale(1.5)" fill="rgba(244, 67, 54, 1)"></use><use xlink:href="#SvgjsG15685" transform="translate(576, 504) scale(1.5)" fill="rgba(21, 101, 192, 1)"></use><use xlink:href="#SvgjsG15684" transform="translate(648, 0) scale(1.5)" fill="rgba(68, 138, 255, 1)"></use><use xlink:href="#SvgjsG15685" transform="translate(648, 72) scale(1.5)" fill="rgba(0, 150, 136, 1)"></use><use xlink:href="#SvgjsG15684" transform="translate(648, 144) scale(1.5)" fill="rgba(68, 138, 255, 1)"></use><use xlink:href="#SvgjsG15684" transform="translate(648, 216) scale(1.5)" fill="rgba(255, 193, 7, 1)"></use><use xlink:href="#SvgjsG15685" transform="translate(648, 288) scale(1.5)" fill="rgba(21, 101, 192, 1)"></use><use xlink:href="#SvgjsG15684" transform="translate(648, 360) scale(1.5)" fill="rgba(68, 138, 255, 1)"></use><use xlink:href="#SvgjsG15685" transform="translate(648, 432) scale(1.5)" fill="rgba(255, 152, 0, 1)"></use><use xlink:href="#SvgjsG15684" transform="translate(648, 504) scale(1.5)" fill="rgba(244, 67, 54, 1)"></use></g></defs></svg>