<svg xmlns="http://www.w3.org/2000/svg" version="1.1" xmlns:xlink="http://www.w3.org/1999/xlink" xmlns:svgjs="http://svgjs.dev/svgjs" width="1440" height="560" preserveAspectRatio="none" viewBox="0 0 1440 560"><g mask="url(&quot;#SvgjsMask15222&quot;)" fill="none"><rect width="1440" height="560" x="0" y="0" fill="url(&quot;#SvgjsRadialGradient15223&quot;)"></rect><use xlink:href="#SvgjsG15226" transform="translate(0, 0)" fill="rgba(21, 101, 192, 1)"></use><use xlink:href="#SvgjsG15226" transform="translate(720, 0)" fill="rgba(255, 152, 0, 1)"></use></g><defs><mask id="SvgjsMask15222"><rect width="1440" height="560" fill="#ffffff"></rect></mask><radialGradient cx="50%" cy="50%" r="772.53" gradientUnits="userSpaceOnUse" id="SvgjsRadialGradient15223"><stop stop-color="rgba(173, 20, 87, 1)" offset="0.16"></stop><stop stop-color="rgba(0, 0, 0, 1)" offset="1"></stop></radialGradient><g id="SvgjsG15225"><path d="M13.6 2.29C10.51-0.8 5.47-0.78 2.35 2.34-0.78 5.47-0.8 10.51 2.29 13.6c3.09 3.1 8.14 3.07 11.27-0.05C16.68 10.43 16.7 5.38 13.6 2.29z m-10.01 10.01c-2.38-2.38-2.36-6.26 0.05-8.66C6.04 1.23 9.92 1.21 12.3 3.59c2.38 2.38 2.36 6.26-0.03 8.67C9.86 14.66 5.98 14.68 3.59 12.3z"></path><path d="M5.37 9.36l1.27 1.27L7.62 9.65c0.26-0.27 0.64-0.4 1.19-0.29 0.55 0.11 1.92 0.6 3.08-0.56 1.16-1.16 0.98-2.93 0.34-3.92-0.65-0.98-1.65-1.76-2.97-1.7-1.18 0.05-1.79 0.42-2.86 1.5l1.26 1.26 0.25-0.25c0.57-0.58 1.24-1.11 2.23-0.46 0.54 0.36 0.82 0.92 0.83 1.41 0 0.56-0.62 1.19-1.39 1.05l-1.19-0.23c-0.68-0.15-1.12 0.01-1.56 0.44l-1.46 1.46z m-1.8 1.79L4.87 9.85l1.28 1.28-1.3 1.3z"></path></g><g id="SvgjsG15224"><path d="M2.5 13.09C-0.5 10.08-0.5 5.19 2.51 2.18 5.52-0.83 10.41-0.83 13.42 2.18S16.43 10.08 13.42 13.09c-3.01 3.01-7.91 3.01-10.92 0z m1.35-1.35c2.26 2.26 5.95 2.27 8.22 0 2.26-2.26 2.26-5.95 0-8.21-2.26-2.26-5.95-2.26-8.21 0-2.27 2.27-2.27 5.95-0.01 8.21z"></path><path d="M7.27 8.38a0.57 0.57 0 0 1-0.36-0.42 0.58 0.58 0 0 1 0.1-0.46L10.17 4.32a0.58 0.58 0 0 1 0.82 0.82l-2.46 2.46 3.1 1.11a0.58 0.58 0 0 1 0.35 0.74c-0.11 0.3-0.44 0.46-0.74 0.36l-3.97-1.43z"></path></g><g id="SvgjsG15226"><use xlink:href="#SvgjsG15224" transform="translate(0, 0) scale(1.5)" fill="rgba(68, 138, 255, 1)"></use><use xlink:href="#SvgjsG15224" transform="translate(0, 72) scale(1.5)" fill="rgba(68, 138, 255, 1)"></use><use xlink:href="#SvgjsG15224" transform="translate(0, 144) scale(1.5)" fill="rgba(21, 101, 192, 1)"></use><use xlink:href="#SvgjsG15224" transform="translate(0, 216) scale(1.5)" fill="rgba(139, 195, 74, 1)"></use><use xlink:href="#SvgjsG15224" transform="translate(0, 288) scale(1.5)" fill="rgba(255, 193, 7, 1)"></use><use xlink:href="#SvgjsG15225" transform="translate(0, 360) scale(1.5)" fill="rgba(21, 101, 192, 1)"></use><use xlink:href="#SvgjsG15225" transform="translate(0, 432) scale(1.5)" fill="rgba(21, 101, 192, 1)"></use><use xlink:href="#SvgjsG15224" transform="translate(0, 504) scale(1.5)" fill="rgba(68, 138, 255, 1)"></use><use xlink:href="#SvgjsG15224" transform="translate(72, 0) scale(1.5)" fill="rgba(21, 101, 192, 1)"></use><use xlink:href="#SvgjsG15224" transform="translate(72, 72) scale(1.5)" fill="rgba(21, 101, 192, 1)"></use><use xlink:href="#SvgjsG15225" transform="translate(72, 144) scale(1.5)" fill="rgba(255, 152, 0, 1)"></use><use xlink:href="#SvgjsG15225" transform="translate(72, 216) scale(1.5)" fill="rgba(244, 67, 54, 1)"></use><use xlink:href="#SvgjsG15224" transform="translate(72, 288) scale(1.5)" fill="rgba(21, 101, 192, 1)"></use><use xlink:href="#SvgjsG15224" transform="translate(72, 360) scale(1.5)" fill="rgba(68, 138, 255, 1)"></use><use xlink:href="#SvgjsG15224" transform="translate(72, 432) scale(1.5)" fill="rgba(0, 150, 136, 1)"></use><use xlink:href="#SvgjsG15225" transform="translate(72, 504) scale(1.5)" fill="rgba(0, 150, 136, 1)"></use><use xlink:href="#SvgjsG15225" transform="translate(144, 0) scale(1.5)" fill="rgba(21, 101, 192, 1)"></use><use xlink:href="#SvgjsG15225" transform="translate(144, 72) scale(1.5)" fill="rgba(68, 138, 255, 1)"></use><use xlink:href="#SvgjsG15225" transform="translate(144, 144) scale(1.5)" fill="rgba(0, 150, 136, 1)"></use><use xlink:href="#SvgjsG15225" transform="translate(144, 216) scale(1.5)" fill="rgba(68, 138, 255, 1)"></use><use xlink:href="#SvgjsG15224" transform="translate(144, 288) scale(1.5)" fill="rgba(139, 195, 74, 1)"></use><use xlink:href="#SvgjsG15224" transform="translate(144, 360) scale(1.5)" fill="rgba(255, 193, 7, 1)"></use><use xlink:href="#SvgjsG15225" transform="translate(144, 432) scale(1.5)" fill="rgba(68, 138, 255, 1)"></use><use xlink:href="#SvgjsG15225" transform="translate(144, 504) scale(1.5)" fill="rgba(0, 150, 136, 1)"></use><use xlink:href="#SvgjsG15224" transform="translate(216, 0) scale(1.5)" fill="rgba(255, 152, 0, 1)"></use><use xlink:href="#SvgjsG15225" transform="translate(216, 72) scale(1.5)" fill="rgba(139, 195, 74, 1)"></use><use xlink:href="#SvgjsG15225" transform="translate(216, 144) scale(1.5)" fill="rgba(244, 67, 54, 1)"></use><use xlink:href="#SvgjsG15225" transform="translate(216, 216) scale(1.5)" fill="rgba(68, 138, 255, 1)"></use><use xlink:href="#SvgjsG15225" transform="translate(216, 288) scale(1.5)" fill="rgba(255, 193, 7, 1)"></use><use xlink:href="#SvgjsG15224" transform="translate(216, 360) scale(1.5)" fill="rgba(21, 101, 192, 1)"></use><use xlink:href="#SvgjsG15224" transform="translate(216, 432) scale(1.5)" fill="rgba(139, 195, 74, 1)"></use><use xlink:href="#SvgjsG15225" transform="translate(216, 504) scale(1.5)" fill="rgba(255, 193, 7, 1)"></use><use xlink:href="#SvgjsG15224" transform="translate(288, 0) scale(1.5)" fill="rgba(255, 152, 0, 1)"></use><use xlink:href="#SvgjsG15224" transform="translate(288, 72) scale(1.5)" fill="rgba(0, 150, 136, 1)"></use><use xlink:href="#SvgjsG15225" transform="translate(288, 144) scale(1.5)" fill="rgba(139, 195, 74, 1)"></use><use xlink:href="#SvgjsG15224" transform="translate(288, 216) scale(1.5)" fill="rgba(255, 152, 0, 1)"></use><use xlink:href="#SvgjsG15225" transform="translate(288, 288) scale(1.5)" fill="rgba(255, 193, 7, 1)"></use><use xlink:href="#SvgjsG15224" transform="translate(288, 360) scale(1.5)" fill="rgba(139, 195, 74, 1)"></use><use xlink:href="#SvgjsG15225" transform="translate(288, 432) scale(1.5)" fill="rgba(244, 67, 54, 1)"></use><use xlink:href="#SvgjsG15225" transform="translate(288, 504) scale(1.5)" fill="rgba(139, 195, 74, 1)"></use><use xlink:href="#SvgjsG15225" transform="translate(360, 0) scale(1.5)" fill="rgba(0, 150, 136, 1)"></use><use xlink:href="#SvgjsG15224" transform="translate(360, 72) scale(1.5)" fill="rgba(244, 67, 54, 1)"></use><use xlink:href="#SvgjsG15225" transform="translate(360, 144) scale(1.5)" fill="rgba(255, 152, 0, 1)"></use><use xlink:href="#SvgjsG15224" transform="translate(360, 216) scale(1.5)" fill="rgba(255, 193, 7, 1)"></use><use xlink:href="#SvgjsG15225" transform="translate(360, 288) scale(1.5)" fill="rgba(255, 152, 0, 1)"></use><use xlink:href="#SvgjsG15225" transform="translate(360, 360) scale(1.5)" fill="rgba(255, 193, 7, 1)"></use><use xlink:href="#SvgjsG15225" transform="translate(360, 432) scale(1.5)" fill="rgba(0, 150, 136, 1)"></use><use xlink:href="#SvgjsG15224" transform="translate(360, 504) scale(1.5)" fill="rgba(244, 67, 54, 1)"></use><use xlink:href="#SvgjsG15224" transform="translate(432, 0) scale(1.5)" fill="rgba(139, 195, 74, 1)"></use><use xlink:href="#SvgjsG15225" transform="translate(432, 72) scale(1.5)" fill="rgba(0, 150, 136, 1)"></use><use xlink:href="#SvgjsG15224" transform="translate(432, 144) scale(1.5)" fill="rgba(0, 150, 136, 1)"></use><use xlink:href="#SvgjsG15224" transform="translate(432, 216) scale(1.5)" fill="rgba(255, 193, 7, 1)"></use><use xlink:href="#SvgjsG15224" transform="translate(432, 288) scale(1.5)" fill="rgba(255, 193, 7, 1)"></use><use xlink:href="#SvgjsG15225" transform="translate(432, 360) scale(1.5)" fill="rgba(68, 138, 255, 1)"></use><use xlink:href="#SvgjsG15224" transform="translate(432, 432) scale(1.5)" fill="rgba(68, 138, 255, 1)"></use><use xlink:href="#SvgjsG15224" transform="translate(432, 504) scale(1.5)" fill="rgba(244, 67, 54, 1)"></use><use xlink:href="#SvgjsG15224" transform="translate(504, 0) scale(1.5)" fill="rgba(21, 101, 192, 1)"></use><use xlink:href="#SvgjsG15224" transform="translate(504, 72) scale(1.5)" fill="rgba(139, 195, 74, 1)"></use><use xlink:href="#SvgjsG15224" transform="translate(504, 144) scale(1.5)" fill="rgba(255, 193, 7, 1)"></use><use xlink:href="#SvgjsG15224" transform="translate(504, 216) scale(1.5)" fill="rgba(255, 193, 7, 1)"></use><use xlink:href="#SvgjsG15224" transform="translate(504, 288) scale(1.5)" fill="rgba(21, 101, 192, 1)"></use><use xlink:href="#SvgjsG15224" transform="translate(504, 360) scale(1.5)" fill="rgba(68, 138, 255, 1)"></use><use xlink:href="#SvgjsG15224" transform="translate(504, 432) scale(1.5)" fill="rgba(0, 150, 136, 1)"></use><use xlink:href="#SvgjsG15224" transform="translate(504, 504) scale(1.5)" fill="rgba(68, 138, 255, 1)"></use><use xlink:href="#SvgjsG15225" transform="translate(576, 0) scale(1.5)" fill="rgba(255, 193, 7, 1)"></use><use xlink:href="#SvgjsG15224" transform="translate(576, 72) scale(1.5)" fill="rgba(68, 138, 255, 1)"></use><use xlink:href="#SvgjsG15224" transform="translate(576, 144) scale(1.5)" fill="rgba(255, 152, 0, 1)"></use><use xlink:href="#SvgjsG15225" transform="translate(576, 216) scale(1.5)" fill="rgba(21, 101, 192, 1)"></use><use xlink:href="#SvgjsG15224" transform="translate(576, 288) scale(1.5)" fill="rgba(21, 101, 192, 1)"></use><use xlink:href="#SvgjsG15224" transform="translate(576, 360) scale(1.5)" fill="rgba(68, 138, 255, 1)"></use><use xlink:href="#SvgjsG15225" transform="translate(576, 432) scale(1.5)" fill="rgba(21, 101, 192, 1)"></use><use xlink:href="#SvgjsG15224" transform="translate(576, 504) scale(1.5)" fill="rgba(0, 150, 136, 1)"></use><use xlink:href="#SvgjsG15225" transform="translate(648, 0) scale(1.5)" fill="rgba(139, 195, 74, 1)"></use><use xlink:href="#SvgjsG15224" transform="translate(648, 72) scale(1.5)" fill="rgba(255, 152, 0, 1)"></use><use xlink:href="#SvgjsG15224" transform="translate(648, 144) scale(1.5)" fill="rgba(68, 138, 255, 1)"></use><use xlink:href="#SvgjsG15224" transform="translate(648, 216) scale(1.5)" fill="rgba(0, 150, 136, 1)"></use><use xlink:href="#SvgjsG15225" transform="translate(648, 288) scale(1.5)" fill="rgba(68, 138, 255, 1)"></use><use xlink:href="#SvgjsG15224" transform="translate(648, 360) scale(1.5)" fill="rgba(139, 195, 74, 1)"></use><use xlink:href="#SvgjsG15225" transform="translate(648, 432) scale(1.5)" fill="rgba(68, 138, 255, 1)"></use><use xlink:href="#SvgjsG15224" transform="translate(648, 504) scale(1.5)" fill="rgba(139, 195, 74, 1)"></use></g></defs></svg>