<svg xmlns="http://www.w3.org/2000/svg" version="1.1" xmlns:xlink="http://www.w3.org/1999/xlink" xmlns:svgjs="http://svgjs.dev/svgjs" width="1440" height="560" preserveAspectRatio="none" viewBox="0 0 1440 560"><g mask="url(&quot;#SvgjsMask15067&quot;)" fill="none"><rect width="1440" height="560" x="0" y="0" fill="url(&quot;#SvgjsRadialGradient15068&quot;)"></rect><use xlink:href="#SvgjsG15071" transform="translate(0, 0)" fill="rgba(0, 150, 136, 1)"></use><use xlink:href="#SvgjsG15071" transform="translate(720, 0)" fill="rgba(21, 101, 192, 1)"></use></g><defs><mask id="SvgjsMask15067"><rect width="1440" height="560" fill="#ffffff"></rect></mask><radialGradient cx="50%" cy="50%" r="772.53" gradientUnits="userSpaceOnUse" id="SvgjsRadialGradient15068"><stop stop-color="rgba(173, 20, 87, 1)" offset="0.16"></stop><stop stop-color="rgba(0, 0, 0, 1)" offset="1"></stop></radialGradient><g id="SvgjsG15070"><path d="M7.926 0C3.552-0.003 0.004 3.58 0 7.996 0.004 12.419 3.552 16.002 7.926 16c4.377 0.002 7.924-3.581 7.927-8.004C15.85 3.58 12.303-0.003 7.926 0z m0 14.157c-3.366 0-6.095-2.757-6.091-6.161C1.831 4.598 4.56 1.842 7.926 1.843c3.368-0.001 6.098 2.756 6.102 6.153C14.024 11.4 11.294 14.157 7.927 14.157z"></path><path d="M7.104 10.825l1.792-0.008V9.432c-0.004-0.376 0.171-0.732 0.64-1.038 0.47-0.309 1.781-0.933 1.783-2.579-0.002-1.639-1.378-2.768-2.536-3.011-1.156-0.236-2.409-0.078-3.297 0.9-0.798 0.868-0.966 1.559-0.969 3.08h1.791v-0.354c-0.004-0.81 0.09-1.666 1.246-1.904 0.636-0.124 1.229 0.074 1.584 0.416 0.4 0.396 0.403 1.282-0.242 1.721l-1.004 0.684c-0.585 0.379-0.786 0.797-0.788 1.41v2.068z m-0.008 2.536V11.526h1.808v1.835z"></path></g><g id="SvgjsG15069"><path d="M7.713 15.485C3.459 15.485 0 12.025 0 7.768 0 3.513 3.459 0.051 7.713 0.051S15.432 3.513 15.432 7.768c0 4.257-3.465 7.716-7.719 7.717z m0-1.91c3.201 0 5.81-2.604 5.81-5.809 0-3.199-2.61-5.807-5.81-5.807-3.202 0-5.804 2.609-5.804 5.807-0.001 3.206 2.602 5.809 5.804 5.809z"></path><path d="M7.753 8.787a0.574 0.574 0 0 1-0.554-0.042 0.578 0.578 0 0 1-0.259-0.399L6.931 3.862a0.58 0.58 0 0 1 1.162 0v3.478l2.975-1.4a0.578 0.578 0 0 1 0.773 0.275c0.138 0.292 0.011 0.637-0.276 0.774l-3.81 1.798z"></path></g><g id="SvgjsG15071"><use xlink:href="#SvgjsG15069" transform="translate(0, 0) scale(1.5)" fill="rgba(0, 150, 136, 1)"></use><use xlink:href="#SvgjsG15070" transform="translate(0, 72) scale(1.5)" fill="rgba(0, 150, 136, 1)"></use><use xlink:href="#SvgjsG15070" transform="translate(0, 144) scale(1.5)" fill="rgba(139, 195, 74, 1)"></use><use xlink:href="#SvgjsG15070" transform="translate(0, 216) scale(1.5)" fill="rgba(255, 152, 0, 1)"></use><use xlink:href="#SvgjsG15069" transform="translate(0, 288) scale(1.5)" fill="rgba(21, 101, 192, 1)"></use><use xlink:href="#SvgjsG15070" transform="translate(0, 360) scale(1.5)" fill="rgba(68, 138, 255, 1)"></use><use xlink:href="#SvgjsG15069" transform="translate(0, 432) scale(1.5)" fill="rgba(68, 138, 255, 1)"></use><use xlink:href="#SvgjsG15070" transform="translate(0, 504) scale(1.5)" fill="rgba(255, 152, 0, 1)"></use><use xlink:href="#SvgjsG15069" transform="translate(72, 0) scale(1.5)" fill="rgba(21, 101, 192, 1)"></use><use xlink:href="#SvgjsG15070" transform="translate(72, 72) scale(1.5)" fill="rgba(244, 67, 54, 1)"></use><use xlink:href="#SvgjsG15069" transform="translate(72, 144) scale(1.5)" fill="rgba(68, 138, 255, 1)"></use><use xlink:href="#SvgjsG15069" transform="translate(72, 216) scale(1.5)" fill="rgba(255, 152, 0, 1)"></use><use xlink:href="#SvgjsG15070" transform="translate(72, 288) scale(1.5)" fill="rgba(68, 138, 255, 1)"></use><use xlink:href="#SvgjsG15069" transform="translate(72, 360) scale(1.5)" fill="rgba(244, 67, 54, 1)"></use><use xlink:href="#SvgjsG15069" transform="translate(72, 432) scale(1.5)" fill="rgba(244, 67, 54, 1)"></use><use xlink:href="#SvgjsG15069" transform="translate(72, 504) scale(1.5)" fill="rgba(255, 152, 0, 1)"></use><use xlink:href="#SvgjsG15069" transform="translate(144, 0) scale(1.5)" fill="rgba(21, 101, 192, 1)"></use><use xlink:href="#SvgjsG15070" transform="translate(144, 72) scale(1.5)" fill="rgba(0, 150, 136, 1)"></use><use xlink:href="#SvgjsG15070" transform="translate(144, 144) scale(1.5)" fill="rgba(139, 195, 74, 1)"></use><use xlink:href="#SvgjsG15070" transform="translate(144, 216) scale(1.5)" fill="rgba(244, 67, 54, 1)"></use><use xlink:href="#SvgjsG15070" transform="translate(144, 288) scale(1.5)" fill="rgba(68, 138, 255, 1)"></use><use xlink:href="#SvgjsG15070" transform="translate(144, 360) scale(1.5)" fill="rgba(139, 195, 74, 1)"></use><use xlink:href="#SvgjsG15069" transform="translate(144, 432) scale(1.5)" fill="rgba(255, 152, 0, 1)"></use><use xlink:href="#SvgjsG15069" transform="translate(144, 504) scale(1.5)" fill="rgba(21, 101, 192, 1)"></use><use xlink:href="#SvgjsG15069" transform="translate(216, 0) scale(1.5)" fill="rgba(139, 195, 74, 1)"></use><use xlink:href="#SvgjsG15070" transform="translate(216, 72) scale(1.5)" fill="rgba(244, 67, 54, 1)"></use><use xlink:href="#SvgjsG15070" transform="translate(216, 144) scale(1.5)" fill="rgba(0, 150, 136, 1)"></use><use xlink:href="#SvgjsG15070" transform="translate(216, 216) scale(1.5)" fill="rgba(21, 101, 192, 1)"></use><use xlink:href="#SvgjsG15070" transform="translate(216, 288) scale(1.5)" fill="rgba(21, 101, 192, 1)"></use><use xlink:href="#SvgjsG15069" transform="translate(216, 360) scale(1.5)" fill="rgba(0, 150, 136, 1)"></use><use xlink:href="#SvgjsG15070" transform="translate(216, 432) scale(1.5)" fill="rgba(255, 152, 0, 1)"></use><use xlink:href="#SvgjsG15070" transform="translate(216, 504) scale(1.5)" fill="rgba(68, 138, 255, 1)"></use><use xlink:href="#SvgjsG15069" transform="translate(288, 0) scale(1.5)" fill="rgba(68, 138, 255, 1)"></use><use xlink:href="#SvgjsG15070" transform="translate(288, 72) scale(1.5)" fill="rgba(21, 101, 192, 1)"></use><use xlink:href="#SvgjsG15070" transform="translate(288, 144) scale(1.5)" fill="rgba(255, 152, 0, 1)"></use><use xlink:href="#SvgjsG15069" transform="translate(288, 216) scale(1.5)" fill="rgba(0, 150, 136, 1)"></use><use xlink:href="#SvgjsG15069" transform="translate(288, 288) scale(1.5)" fill="rgba(139, 195, 74, 1)"></use><use xlink:href="#SvgjsG15069" transform="translate(288, 360) scale(1.5)" fill="rgba(0, 150, 136, 1)"></use><use xlink:href="#SvgjsG15070" transform="translate(288, 432) scale(1.5)" fill="rgba(255, 193, 7, 1)"></use><use xlink:href="#SvgjsG15069" transform="translate(288, 504) scale(1.5)" fill="rgba(21, 101, 192, 1)"></use><use xlink:href="#SvgjsG15070" transform="translate(360, 0) scale(1.5)" fill="rgba(255, 152, 0, 1)"></use><use xlink:href="#SvgjsG15069" transform="translate(360, 72) scale(1.5)" fill="rgba(244, 67, 54, 1)"></use><use xlink:href="#SvgjsG15070" transform="translate(360, 144) scale(1.5)" fill="rgba(68, 138, 255, 1)"></use><use xlink:href="#SvgjsG15070" transform="translate(360, 216) scale(1.5)" fill="rgba(255, 152, 0, 1)"></use><use xlink:href="#SvgjsG15070" transform="translate(360, 288) scale(1.5)" fill="rgba(0, 150, 136, 1)"></use><use xlink:href="#SvgjsG15069" transform="translate(360, 360) scale(1.5)" fill="rgba(68, 138, 255, 1)"></use><use xlink:href="#SvgjsG15070" transform="translate(360, 432) scale(1.5)" fill="rgba(255, 152, 0, 1)"></use><use xlink:href="#SvgjsG15069" transform="translate(360, 504) scale(1.5)" fill="rgba(244, 67, 54, 1)"></use><use xlink:href="#SvgjsG15069" transform="translate(432, 0) scale(1.5)" fill="rgba(139, 195, 74, 1)"></use><use xlink:href="#SvgjsG15069" transform="translate(432, 72) scale(1.5)" fill="rgba(255, 152, 0, 1)"></use><use xlink:href="#SvgjsG15069" transform="translate(432, 144) scale(1.5)" fill="rgba(255, 193, 7, 1)"></use><use xlink:href="#SvgjsG15069" transform="translate(432, 216) scale(1.5)" fill="rgba(255, 193, 7, 1)"></use><use xlink:href="#SvgjsG15069" transform="translate(432, 288) scale(1.5)" fill="rgba(244, 67, 54, 1)"></use><use xlink:href="#SvgjsG15070" transform="translate(432, 360) scale(1.5)" fill="rgba(255, 193, 7, 1)"></use><use xlink:href="#SvgjsG15070" transform="translate(432, 432) scale(1.5)" fill="rgba(21, 101, 192, 1)"></use><use xlink:href="#SvgjsG15069" transform="translate(432, 504) scale(1.5)" fill="rgba(0, 150, 136, 1)"></use><use xlink:href="#SvgjsG15069" transform="translate(504, 0) scale(1.5)" fill="rgba(0, 150, 136, 1)"></use><use xlink:href="#SvgjsG15069" transform="translate(504, 72) scale(1.5)" fill="rgba(21, 101, 192, 1)"></use><use xlink:href="#SvgjsG15069" transform="translate(504, 144) scale(1.5)" fill="rgba(0, 150, 136, 1)"></use><use xlink:href="#SvgjsG15070" transform="translate(504, 216) scale(1.5)" fill="rgba(139, 195, 74, 1)"></use><use xlink:href="#SvgjsG15069" transform="translate(504, 288) scale(1.5)" fill="rgba(244, 67, 54, 1)"></use><use xlink:href="#SvgjsG15070" transform="translate(504, 360) scale(1.5)" fill="rgba(255, 193, 7, 1)"></use><use xlink:href="#SvgjsG15070" transform="translate(504, 432) scale(1.5)" fill="rgba(0, 150, 136, 1)"></use><use xlink:href="#SvgjsG15069" transform="translate(504, 504) scale(1.5)" fill="rgba(139, 195, 74, 1)"></use><use xlink:href="#SvgjsG15069" transform="translate(576, 0) scale(1.5)" fill="rgba(0, 150, 136, 1)"></use><use xlink:href="#SvgjsG15070" transform="translate(576, 72) scale(1.5)" fill="rgba(255, 152, 0, 1)"></use><use xlink:href="#SvgjsG15070" transform="translate(576, 144) scale(1.5)" fill="rgba(255, 193, 7, 1)"></use><use xlink:href="#SvgjsG15070" transform="translate(576, 216) scale(1.5)" fill="rgba(0, 150, 136, 1)"></use><use xlink:href="#SvgjsG15069" transform="translate(576, 288) scale(1.5)" fill="rgba(244, 67, 54, 1)"></use><use xlink:href="#SvgjsG15070" transform="translate(576, 360) scale(1.5)" fill="rgba(21, 101, 192, 1)"></use><use xlink:href="#SvgjsG15069" transform="translate(576, 432) scale(1.5)" fill="rgba(0, 150, 136, 1)"></use><use xlink:href="#SvgjsG15070" transform="translate(576, 504) scale(1.5)" fill="rgba(139, 195, 74, 1)"></use><use xlink:href="#SvgjsG15070" transform="translate(648, 0) scale(1.5)" fill="rgba(244, 67, 54, 1)"></use><use xlink:href="#SvgjsG15069" transform="translate(648, 72) scale(1.5)" fill="rgba(0, 150, 136, 1)"></use><use xlink:href="#SvgjsG15070" transform="translate(648, 144) scale(1.5)" fill="rgba(255, 152, 0, 1)"></use><use xlink:href="#SvgjsG15069" transform="translate(648, 216) scale(1.5)" fill="rgba(0, 150, 136, 1)"></use><use xlink:href="#SvgjsG15069" transform="translate(648, 288) scale(1.5)" fill="rgba(0, 150, 136, 1)"></use><use xlink:href="#SvgjsG15069" transform="translate(648, 360) scale(1.5)" fill="rgba(244, 67, 54, 1)"></use><use xlink:href="#SvgjsG15070" transform="translate(648, 432) scale(1.5)" fill="rgba(255, 193, 7, 1)"></use><use xlink:href="#SvgjsG15070" transform="translate(648, 504) scale(1.5)" fill="rgba(21, 101, 192, 1)"></use></g></defs></svg>